<svg xmlns="http://www.w3.org/2000/svg" width="122" height="83" viewBox="-898 419 122 83"><path fill="#3A2039" d="M-880.1 496.5c0-.2 0-.4-.1-.5-.1-.2-.1-.3-.3-.4-.1-.1-.3-.2-.4-.3-.2-.1-.4-.1-.6-.1-.2 0-.4 0-.6.1-.2.1-.3.2-.5.3-.1.1-.2.3-.3.4-.1.2-.1.3-.1.5h2.9zm-2.8.7c0 .2 0 .4.1.6.1.2.2.3.4.4.1.1.3.2.5.3.2.1.4.1.6.1.3 0 .5-.1.7-.2.2-.1.4-.3.6-.5l.7.5c-.5.6-1.2.9-2.1.9-.4 0-.7-.1-1-.2-.3-.1-.6-.3-.8-.5-.2-.2-.4-.5-.5-.8-.1-.3-.2-.6-.2-1 0-.3.1-.7.2-1 .1-.3.3-.6.5-.8.2-.2.5-.4.8-.5.3-.1.6-.2 1-.2s.8.1 1.1.2c.3.1.5.3.7.6.2.2.3.5.4.8.1.3.1.6.1.9v.3l-3.8.1zm7-.4l-1.7-2.2h1.2l1.1 1.6 1.1-1.6h1.1l-1.6 2.2 1.9 2.5h-1.1l-1.4-1.9-1.4 1.9h-1.1l1.9-2.5zm7.2-1.5c-.2 0-.5 0-.6.1-.2.1-.4.2-.5.3-.1.1-.2.3-.3.5-.1.2-.1.4-.1.6 0 .2 0 .4.1.6.1.2.2.4.3.5.1.1.3.3.5.3.2.1.4.1.6.1.2 0 .5 0 .6-.1.2-.1.4-.2.5-.3.1-.1.2-.3.3-.5.1-.2.1-.4.1-.7 0-.2 0-.4-.1-.6-.1-.2-.2-.4-.3-.5-.1-.1-.3-.3-.5-.3-.1.1-.3 0-.6 0zm-2.4-.7h.9v.7c.2-.3.4-.4.7-.6.3-.1.6-.2.9-.2.4 0 .7.1 1 .2.3.1.5.3.8.5.2.2.4.5.5.8.1.3.2.6.2 1 0 .3-.1.7-.2 1-.1.3-.3.6-.5.8-.2.2-.5.4-.8.5-.3.1-.6.2-1 .2-.3 0-.7-.1-1-.2-.3-.1-.5-.3-.7-.6v3.4h-.9l.1-7.5zm7-2.8h.9v7.4h-.9v-7.4zm3 5.1c0-.3.1-.7.2-1 .1-.3.3-.5.5-.8.2-.2.5-.4.8-.5.3-.1.6-.2 1-.2s.7.1 1 .2c.3.1.6.3.8.5.2.2.4.5.5.8.1.3.2.6.2.9s-.1.7-.2 1c-.1.3-.3.6-.5.8-.2.2-.5.4-.8.5-.3.1-.6.2-1 .2-.3 0-.7-.1-1-.2-.3-.1-.6-.3-.8-.5-.2-.2-.4-.5-.5-.8-.1-.2-.2-.5-.2-.9zm1 0c0 .2 0 .4.1.6.1.2.2.4.3.5.1.1.3.3.5.3.2.1.4.1.6.1.2 0 .5 0 .6-.1.2-.1.4-.2.5-.3s.2-.3.3-.5c.1-.2.1-.4.1-.6 0-.2 0-.5-.1-.6-.1-.2-.2-.4-.3-.5-.1-.1-.3-.3-.5-.3-.2-.1-.4-.1-.6-.1-.2 0-.5 0-.6.1-.2.1-.4.2-.5.3-.1.1-.2.3-.3.5-.1.2-.1.4-.1.6zm6-2.3h.9v.7c.1-.1.1-.2.2-.3l.3-.3c.1-.1.3-.1.4-.2.1 0 .3-.1.4-.1.1 0 .3 0 .4.1v1c-.1 0-.1 0-.2-.1s-.1 0-.2 0c-.4 0-.8.1-1 .4-.2.2-.3.6-.3 1.1v2.3h-.9v-4.6zm7.9 1.9c0-.2 0-.4-.1-.5-.1-.2-.1-.3-.3-.4-.1-.1-.3-.2-.4-.3-.2-.1-.4-.1-.6-.1-.2 0-.4 0-.6.1-.2.1-.3.2-.5.3-.1.1-.2.3-.3.4s-.1.3-.1.5h2.9zm-2.8.7c0 .2 0 .4.1.5.1.2.2.3.4.4.1.1.3.2.5.3.2.1.4.1.6.1.3 0 .5-.1.7-.2.2-.1.4-.3.6-.5l.7.5c-.5.6-1.2.9-2.1.9-.4 0-.7-.1-1-.2-.3-.1-.6-.3-.8-.5-.2-.2-.4-.5-.5-.8-.1-.3-.2-.6-.2-1 0-.3.1-.7.2-1 .1-.3.3-.6.5-.8.2-.2.5-.4.8-.5.3-.1.6-.2 1-.2s.8.1 1.1.2c.3.1.5.3.7.6.2.2.3.5.4.8.1.3.1.6.1.9v.3h-3.8v.2zm10.5-1.2c-.1.1-.3.2-.4.3-.1.1-.3.2-.4.3-.1.1-.2.2-.3.4-.1.1-.1.3-.1.5s0 .3.1.5c.1.1.2.3.3.4.1.1.3.2.4.3.2.1.3.1.5.1s.3 0 .5-.1c.1-.1.3-.1.4-.2.1-.1.2-.2.4-.3l.3-.3-1.7-1.9zm1.3-2.2c0-.2-.1-.4-.2-.5-.2-.1-.4-.2-.6-.2-.3 0-.5.1-.7.2-.2.1-.3.3-.3.6 0 .1 0 .2.1.3 0 .1.1.2.2.3.1.1.1.2.2.3l.2.2c.1-.1.2-.1.4-.2.1-.1.2-.2.4-.3l.3-.3v-.4zm3.1 5.4h-1.3l-.9-.9c-.3.4-.6.6-.9.8-.3.2-.7.3-1.2.3-.4 0-.7-.1-1-.2-.3-.1-.5-.3-.7-.5-.2-.2-.3-.4-.4-.6-.1-.2-.1-.5-.1-.7 0-.2 0-.5.1-.7.1-.2.2-.4.3-.5.1-.2.3-.3.5-.4l.6-.3c-.2-.2-.4-.5-.6-.7-.2-.2-.2-.5-.2-.9 0-.3 0-.5.2-.7.1-.2.2-.4.4-.5l.6-.3c.2-.1.5-.1.7-.1.2 0 .5 0 .7.1l.6.3c.2.1.3.3.4.5.1.2.1.4.1.7 0 .2 0 .4-.1.6-.1.2-.2.3-.3.5-.1.1-.3.3-.5.4-.2.1-.3.2-.5.3l1.4 1.4.9-1.4h1.1l-1.4 2.1 1.5 1.4zm6.7-.7c.2 0 .5 0 .6-.1.2-.1.4-.2.5-.3.1-.1.2-.3.3-.5.1-.2.1-.4.1-.7 0-.2 0-.4-.1-.6-.1-.2-.2-.4-.3-.5-.1-.1-.3-.3-.5-.3-.2-.1-.4-.1-.6-.1-.2 0-.5 0-.6.1-.2.1-.4.2-.5.3-.1.1-.2.3-.3.5-.1.2-.1.4-.1.6 0 .2 0 .4.1.6.1.2.2.4.3.5.1.1.3.3.5.3.2.2.4.2.6.2zm2.5.7h-.9v-.7c-.2.2-.4.4-.7.6-.3.1-.6.2-.9.2-.4 0-.7-.1-1-.2-.3-.1-.5-.3-.8-.5-.2-.2-.4-.5-.5-.8-.1-.3-.2-.6-.2-1 0-.3.1-.7.2-1 .1-.3.3-.6.5-.8.2-.2.5-.4.8-.5.3-.1.6-.2 1-.2.3 0 .7.1 1 .2.3.1.5.3.7.6v-3.4h.9l-.1 7.5zm2.1-6.3c0-.2.1-.3.2-.5.1-.1.3-.2.5-.2s.3.1.5.2c.1.1.2.3.2.5s-.1.3-.2.5c-.1.1-.3.2-.5.2s-.3-.1-.5-.2-.2-.3-.2-.5zm.2 1.7h.9v4.6h-.9v-4.6zm5.7 1.2c-.1-.1-.2-.2-.4-.3-.2-.1-.3-.1-.6-.1-.2 0-.4 0-.6.1-.2.1-.2.2-.2.4 0 .1 0 .2.1.3.1.1.2.2.3.2.1.1.3.1.4.1l.4.1c.2 0 .4.1.5.2.2.1.3.1.4.3.1.1.2.2.3.4.1.2.1.3.1.6s-.1.5-.2.7c-.1.2-.3.3-.4.5l-.6.3c-.2.1-.5.1-.7.1-.4 0-.7-.1-1-.2-.3-.1-.6-.3-.8-.6l.7-.5c.1.1.3.3.5.4.2.1.4.2.7.2h.3c.1 0 .2-.1.3-.1.1-.1.2-.1.2-.2.1-.1.1-.2.1-.3 0-.1 0-.2-.1-.3-.1-.1-.2-.2-.3-.2-.1-.1-.2-.1-.4-.1-.1 0-.2-.1-.3-.1-.2 0-.4-.1-.5-.2-.2-.1-.3-.1-.5-.2-.1-.1-.2-.2-.3-.4-.1-.1-.1-.3-.1-.6 0-.2 0-.5.2-.6.1-.2.2-.3.4-.4l.6-.3c.2-.1.4-.1.6-.1.3 0 .6.1.9.2.3.1.5.3.7.6l-.7.1zm6.2 0c-.2-.2-.3-.3-.5-.4-.2-.1-.4-.1-.7-.1-.2 0-.5 0-.6.1-.2.1-.3.2-.5.4-.1.2-.2.3-.3.5-.1.2-.1.4-.1.6 0 .2 0 .4.1.6.1.2.2.4.3.5.1.1.3.3.5.3.2.1.4.1.6.1.3 0 .5 0 .6-.1.2-.1.3-.2.5-.4l.6.6c-.2.3-.5.4-.8.5-.3.1-.6.2-1 .2s-.7-.1-1-.2c-.3-.1-.6-.3-.8-.5-.2-.2-.4-.5-.5-.8-.1-.3-.2-.6-.2-1s.1-.7.2-1c.1-.3.3-.6.5-.8.2-.2.5-.4.8-.5.3-.1.6-.2 1-.2.3 0 .7.1 1 .2.3.1.6.3.8.6l-.5.8zm2.1 1.1c0-.3.1-.7.2-1 .1-.3.3-.5.5-.8.2-.2.5-.4.8-.5.3-.1.6-.2 1-.2s.7.1 1 .2c.3.1.6.3.8.5.2.2.4.5.5.8.1.3.2.6.2 1 0 .3-.1.7-.2 1-.1.3-.3.6-.5.8-.2.2-.5.4-.8.5-.3.1-.6.2-1 .2s-.7-.1-1-.2c-.3-.1-.6-.3-.8-.5-.2-.2-.4-.5-.5-.8-.2-.3-.2-.6-.2-1zm.9 0c0 .2 0 .5.1.6.1.2.2.4.3.5.1.1.3.3.5.3.2.1.4.1.6.1.2 0 .5 0 .6-.1.2-.1.4-.2.5-.3.1-.1.2-.3.3-.5.1-.2.1-.4.1-.6 0-.2 0-.4-.1-.6-.1-.2-.2-.4-.3-.5-.1-.1-.3-.3-.5-.3-.2-.1-.4-.1-.6-.1-.2 0-.5 0-.6.1-.2.1-.4.2-.5.3-.1.1-.2.3-.3.5 0 .2-.1.4-.1.6zm5.5-2.3h1l1.4 3.6 1.3-3.6h1l-1.8 4.6h-1l-1.9-4.6zm10 1.9c0-.2 0-.4-.1-.5-.1-.2-.1-.3-.3-.4-.1-.1-.3-.2-.4-.3-.2-.1-.4-.1-.6-.1-.2 0-.4 0-.6.1-.2.1-.3.2-.5.3-.1.1-.2.3-.3.4s-.1.3-.1.5h2.9zm-2.9.7c0 .2 0 .4.1.5.1.2.2.3.4.4.1.1.3.2.5.3.2.1.4.1.6.1.3 0 .5-.1.7-.2.2-.1.4-.3.6-.5l.7.5c-.5.6-1.2.9-2.1.9-.4 0-.7-.1-1-.2-.3-.1-.6-.3-.8-.5-.2-.2-.4-.5-.5-.8-.1-.3-.2-.6-.2-1 0-.3.1-.7.2-1 .1-.3.3-.6.5-.8.2-.2.5-.4.8-.5s.6-.2 1-.2.8.1 1.1.2c.3.1.5.3.7.6.2.2.3.5.4.8.1.3.1.6.1.9v.3h-3.8v.2zm5.8-2.6h.9v.7c.1-.1.1-.2.2-.3l.3-.3c.1-.1.3-.1.4-.2.1 0 .3-.1.4-.1.1 0 .3 0 .4.1v.9c-.1 0-.1 0-.2-.1h-.2c-.4 0-.8.1-1 .4-.2.2-.3.6-.3 1.1v2.3h-.9v-4.5zm-75-34.7c-1 .8-2.3 1.3-3.7 1.3-3.1 0-5.7-2.6-5.6-5.7 0-.8.2-1.8.5-2.6 2.7-7.4 7.8-17.3 14.7-24.4 5.5-5.7 12.1-9.6 19.8-9.5 9.1.1 16.2 5.3 22.1 12.3 2-.3 3.8-.4 5.3-.3 4.9.1 9 1.4 11.9 3.8 1.5 1.2 2.6 2.6 3.4 4.3.8 1.6 1.2 3.5 1.1 5.5-.1 3.9-1.9 8.5-6 13.4-1.5 1.9-3.3 3.3-5.3 3.3-3.4-.1-4.5-2.5-5.9-5-3-5.2-6.2-10.9-9.9-15.8-4.8 1.1-10.3 2.9-15.8 5.1-9.9 3.9-19.8 9-26.2 14.1-.1 0-.3.1-.4.2zm53.4-20.9c2.3 3.4 4.4 7 6.3 10.5 1.1-1.9 1.7-3.7 1.7-5.1 0-.7-.1-1.4-.4-1.9-.3-.6-.7-1.1-1.2-1.5-1.3-1.2-3.6-1.9-6.4-2zm-16.8-5.3c-3.4-3-7-5-11-5-4.5-.1-8.8 2.7-12.5 6.6-3.3 3.5-6.2 7.8-8.5 12 5.8-3.4 12.5-6.6 19.2-9.2 4.2-1.8 8.6-3.3 12.8-4.4zm21.4 34.2h3.2c.4 0 .7.3.7.7v17.3c0 .4-.3.7-.7.7h-3.2c-.4 0-.7-.3-.7-.7v-17.3c0-.4.3-.7.7-.7zm-21.1 16c.1 1.1.9 2.9 3.5 2.7h9.5c.6 0 .5-.5.4-.7-.5-1.9-1-2.9-2.3-2.9h-5.3c-.6 0-1.1 0-1.2-.7-.2-1.1-.3-2.2-.3-3.5 0-.1.2-.2.3-.2h6.5c.2 0 .4-.2.4-.4v-2.7c0-.2-.2-.4-.4-.4h-6.6c-.3 0-.2-.3-.2-.4.1-1.1.2-2.1.3-2.8.1-.3.5-.6.8-.6h5.4c1.7 0 2-1.9 2.3-3 .1-.4-.1-.5-.3-.5h-9.3c-1.7 0-3 .9-3.3 2.7-.7 3.3-.8 9.6-.2 13.4zm-24.7-15.2v17c0 .4.2.9.8.9h9.1c4.7 0 7.6-3.9 7.6-9.4 0-5.4-2.9-9.3-7.3-9.3h-9.4c-.6 0-.8.5-.8.8zm5.1 3.2h5.1c1.4 0 2.7 2.3 2.7 5.6 0 3.2-1.8 5.2-3.1 5.2h-4.6c-.3 0-.6-.2-.6-.5v-9.9c0-.2.3-.4.5-.4zm-24.9 9.1c0 4.4 1.9 5.6 4.5 5.6h7.6c.4 0 .6-.3.6-.5v-.6c0-1.5-1.2-2.7-2.6-2.7h-4.2c-1.3 0-1.4-1.1-1.4-1.7v-9.8c0-1.8-1-3.4-2.9-3.4h-1.2c-.2 0-.5-.1-.5.2.1 0 .1 12.9.1 12.9zm-11.3-10.5c2.1 4.5 4 10.4 5.5 15.6.1.2-.1.5-.5.5h-2c-1.2 0-2.5-1-2.9-2.2l-.3-1c-.1-.5-.3-.5-.5-.5h-7.9c-.2 0-.4 0-.5.4l-.3 1.1c-.3 1.2-1.7 2.2-2.9 2.2h-2c-.4 0-.5-.3-.5-.5 1.5-5.1 3.4-11.1 5.5-15.6 1.7-3.6 7.6-3.6 9.3 0zm-1.7 8.7c.3 0 .2-.3.2-.5-.7-2.3-1.4-4.5-2.1-6-.4-.8-1.7-.8-2.1 0-.7 1.5-1.4 3.7-2.1 6.1 0 .1-.1.4.3.4h5.8zm103.4-8.7c2.1 4.5 4 10.4 5.5 15.6.1.2-.1.5-.5.5h-2c-1.2 0-2.5-1-2.9-2.2l-.3-1c-.1-.5-.3-.5-.5-.5h-7.9c-.2 0-.4 0-.5.4l-.3 1.1c-.3 1.2-1.7 2.2-2.9 2.2h-2c-.4 0-.5-.3-.5-.5 1.5-5.1 3.4-11.1 5.5-15.6 1.7-3.6 7.6-3.6 9.3 0zm-1.7 8.7c.3 0 .2-.3.2-.5-.7-2.3-1.4-4.5-2.1-6-.4-.8-1.7-.8-2.1 0-.7 1.5-1.4 3.7-2.1 6.1 0 .1-.1.4.3.4h5.8z"/></svg>