<?xml version="1.0" encoding="utf-8"?>
<!-- Generator: Adobe Illustrator 18.1.1, SVG Export Plug-In . SVG Version: 6.00 Build 0)  -->
<svg version="1.1" id="Layer_1" xmlns="http://www.w3.org/2000/svg" xmlns:xlink="http://www.w3.org/1999/xlink" x="0px" y="0px"
	 width="122px" height="83px" viewBox="-898 419 122 83" enable-background="new -898 419 122 83" xml:space="preserve">
<g>
	<path fill="#3A2039" d="M-880.1,496.5c0-0.2,0-0.4-0.1-0.5c-0.1-0.2-0.1-0.3-0.3-0.4c-0.1-0.1-0.3-0.2-0.4-0.3
		c-0.2-0.1-0.4-0.1-0.6-0.1c-0.2,0-0.4,0-0.6,0.1c-0.2,0.1-0.3,0.2-0.5,0.3c-0.1,0.1-0.2,0.3-0.3,0.4c-0.1,0.2-0.1,0.3-0.1,0.5
		L-880.1,496.5L-880.1,496.5z M-882.9,497.2c0,0.2,0,0.4,0.1,0.6c0.1,0.2,0.2,0.3,0.4,0.4c0.1,0.1,0.3,0.2,0.5,0.3
		c0.2,0.1,0.4,0.1,0.6,0.1c0.3,0,0.5-0.1,0.7-0.2c0.2-0.1,0.4-0.3,0.6-0.5l0.7,0.5c-0.5,0.6-1.2,0.9-2.1,0.9c-0.4,0-0.7-0.1-1-0.2
		c-0.3-0.1-0.6-0.3-0.8-0.5c-0.2-0.2-0.4-0.5-0.5-0.8c-0.1-0.3-0.2-0.6-0.2-1c0-0.3,0.1-0.7,0.2-1c0.1-0.3,0.3-0.6,0.5-0.8
		c0.2-0.2,0.5-0.4,0.8-0.5c0.3-0.1,0.6-0.2,1-0.2c0.4,0,0.8,0.1,1.1,0.2c0.3,0.1,0.5,0.3,0.7,0.6c0.2,0.2,0.3,0.5,0.4,0.8
		c0.1,0.3,0.1,0.6,0.1,0.9v0.3L-882.9,497.2L-882.9,497.2z M-875.9,496.8l-1.7-2.2h1.2l1.1,1.6l1.1-1.6h1.1l-1.6,2.2l1.9,2.5h-1.1
		l-1.4-1.9l-1.4,1.9h-1.1L-875.9,496.8L-875.9,496.8z M-868.7,495.3c-0.2,0-0.5,0-0.6,0.1c-0.2,0.1-0.4,0.2-0.5,0.3
		c-0.1,0.1-0.2,0.3-0.3,0.5c-0.1,0.2-0.1,0.4-0.1,0.6c0,0.2,0,0.4,0.1,0.6c0.1,0.2,0.2,0.4,0.3,0.5c0.1,0.1,0.3,0.3,0.5,0.3
		c0.2,0.1,0.4,0.1,0.6,0.1c0.2,0,0.5,0,0.6-0.1c0.2-0.1,0.4-0.2,0.5-0.3c0.1-0.1,0.2-0.3,0.3-0.5c0.1-0.2,0.1-0.4,0.1-0.7
		c0-0.2,0-0.4-0.1-0.6c-0.1-0.2-0.2-0.4-0.3-0.5c-0.1-0.1-0.3-0.3-0.5-0.3C-868.2,495.4-868.4,495.3-868.7,495.3L-868.7,495.3z
		 M-871.1,494.6h0.9v0.7h0c0.2-0.3,0.4-0.4,0.7-0.6c0.3-0.1,0.6-0.2,0.9-0.2c0.4,0,0.7,0.1,1,0.2c0.3,0.1,0.5,0.3,0.8,0.5
		c0.2,0.2,0.4,0.5,0.5,0.8c0.1,0.3,0.2,0.6,0.2,1c0,0.3-0.1,0.7-0.2,1c-0.1,0.3-0.3,0.6-0.5,0.8c-0.2,0.2-0.5,0.4-0.8,0.5
		c-0.3,0.1-0.6,0.2-1,0.2c-0.3,0-0.7-0.1-1-0.2c-0.3-0.1-0.5-0.3-0.7-0.6h0v3.4h-0.9L-871.1,494.6L-871.1,494.6z M-864.1,491.8h0.9
		v7.4h-0.9V491.8L-864.1,491.8z M-861.1,496.9c0-0.3,0.1-0.7,0.2-1c0.1-0.3,0.3-0.5,0.5-0.8c0.2-0.2,0.5-0.4,0.8-0.5
		c0.3-0.1,0.6-0.2,1-0.2c0.4,0,0.7,0.1,1,0.2c0.3,0.1,0.6,0.3,0.8,0.5c0.2,0.2,0.4,0.5,0.5,0.8c0.1,0.3,0.2,0.6,0.2,0.9
		s-0.1,0.7-0.2,1c-0.1,0.3-0.3,0.6-0.5,0.8c-0.2,0.2-0.5,0.4-0.8,0.5c-0.3,0.1-0.6,0.2-1,0.2c-0.3,0-0.7-0.1-1-0.2
		c-0.3-0.1-0.6-0.3-0.8-0.5c-0.2-0.2-0.4-0.5-0.5-0.8C-861,497.6-861.1,497.3-861.1,496.9L-861.1,496.9L-861.1,496.9z M-860.1,496.9
		c0,0.2,0,0.4,0.1,0.6c0.1,0.2,0.2,0.4,0.3,0.5c0.1,0.1,0.3,0.3,0.5,0.3c0.2,0.1,0.4,0.1,0.6,0.1c0.2,0,0.5,0,0.6-0.1
		c0.2-0.1,0.4-0.2,0.5-0.3s0.2-0.3,0.3-0.5c0.1-0.2,0.1-0.4,0.1-0.6c0-0.2,0-0.5-0.1-0.6c-0.1-0.2-0.2-0.4-0.3-0.5
		c-0.1-0.1-0.3-0.3-0.5-0.3c-0.2-0.1-0.4-0.1-0.6-0.1c-0.2,0-0.5,0-0.6,0.1c-0.2,0.1-0.4,0.2-0.5,0.3c-0.1,0.1-0.2,0.3-0.3,0.5
		C-860.1,496.5-860.1,496.7-860.1,496.9L-860.1,496.9z M-854.1,494.6h0.9v0.7h0c0.1-0.1,0.1-0.2,0.2-0.3c0.1-0.1,0.2-0.2,0.3-0.3
		c0.1-0.1,0.3-0.1,0.4-0.2c0.1,0,0.3-0.1,0.4-0.1c0.1,0,0.3,0,0.4,0.1l0,1c-0.1,0-0.1,0-0.2-0.1s-0.1,0-0.2,0c-0.4,0-0.8,0.1-1,0.4
		c-0.2,0.2-0.3,0.6-0.3,1.1v2.3h-0.9V494.6L-854.1,494.6z M-846.2,496.5c0-0.2,0-0.4-0.1-0.5c-0.1-0.2-0.1-0.3-0.3-0.4
		c-0.1-0.1-0.3-0.2-0.4-0.3c-0.2-0.1-0.4-0.1-0.6-0.1c-0.2,0-0.4,0-0.6,0.1c-0.2,0.1-0.3,0.2-0.5,0.3c-0.1,0.1-0.2,0.3-0.3,0.4
		s-0.1,0.3-0.1,0.5L-846.2,496.5L-846.2,496.5z M-849,497.2c0,0.2,0,0.4,0.1,0.5c0.1,0.2,0.2,0.3,0.4,0.4c0.1,0.1,0.3,0.2,0.5,0.3
		c0.2,0.1,0.4,0.1,0.6,0.1c0.3,0,0.5-0.1,0.7-0.2c0.2-0.1,0.4-0.3,0.6-0.5l0.7,0.5c-0.5,0.6-1.2,0.9-2.1,0.9c-0.4,0-0.7-0.1-1-0.2
		c-0.3-0.1-0.6-0.3-0.8-0.5c-0.2-0.2-0.4-0.5-0.5-0.8c-0.1-0.3-0.2-0.6-0.2-1c0-0.3,0.1-0.7,0.2-1c0.1-0.3,0.3-0.6,0.5-0.8
		c0.2-0.2,0.5-0.4,0.8-0.5c0.3-0.1,0.6-0.2,1-0.2c0.4,0,0.8,0.1,1.1,0.2c0.3,0.1,0.5,0.3,0.7,0.6c0.2,0.2,0.3,0.5,0.4,0.8
		c0.1,0.3,0.1,0.6,0.1,0.9v0.3H-849L-849,497.2z M-838.5,496c-0.1,0.1-0.3,0.2-0.4,0.3c-0.1,0.1-0.3,0.2-0.4,0.3
		c-0.1,0.1-0.2,0.2-0.3,0.4c-0.1,0.1-0.1,0.3-0.1,0.5c0,0.2,0,0.3,0.1,0.5c0.1,0.1,0.2,0.3,0.3,0.4c0.1,0.1,0.3,0.2,0.4,0.3
		c0.2,0.1,0.3,0.1,0.5,0.1c0.2,0,0.3,0,0.5-0.1c0.1-0.1,0.3-0.1,0.4-0.2c0.1-0.1,0.2-0.2,0.4-0.3c0.1-0.1,0.2-0.2,0.3-0.3
		L-838.5,496L-838.5,496z M-837.2,493.8c0-0.2-0.1-0.4-0.2-0.5c-0.2-0.1-0.4-0.2-0.6-0.2c-0.3,0-0.5,0.1-0.7,0.2
		c-0.2,0.1-0.3,0.3-0.3,0.6c0,0.1,0,0.2,0.1,0.3c0,0.1,0.1,0.2,0.2,0.3c0.1,0.1,0.1,0.2,0.2,0.3c0.1,0.1,0.2,0.2,0.2,0.2
		c0.1-0.1,0.2-0.1,0.4-0.2c0.1-0.1,0.2-0.2,0.4-0.3c0.1-0.1,0.2-0.2,0.3-0.3C-837.2,494.1-837.2,493.9-837.2,493.8L-837.2,493.8z
		 M-834.1,499.2h-1.3l-0.9-0.9c-0.3,0.4-0.6,0.6-0.9,0.8c-0.3,0.2-0.7,0.3-1.2,0.3c-0.4,0-0.7-0.1-1-0.2c-0.3-0.1-0.5-0.3-0.7-0.5
		c-0.2-0.2-0.3-0.4-0.4-0.6c-0.1-0.2-0.1-0.5-0.1-0.7c0-0.2,0-0.5,0.1-0.7c0.1-0.2,0.2-0.4,0.3-0.5c0.1-0.2,0.3-0.3,0.5-0.4
		c0.2-0.1,0.4-0.2,0.6-0.3c-0.2-0.2-0.4-0.5-0.6-0.7c-0.2-0.2-0.2-0.5-0.2-0.9c0-0.3,0-0.5,0.2-0.7c0.1-0.2,0.2-0.4,0.4-0.5
		c0.2-0.1,0.4-0.2,0.6-0.3c0.2-0.1,0.5-0.1,0.7-0.1c0.2,0,0.5,0,0.7,0.1c0.2,0.1,0.4,0.2,0.6,0.3c0.2,0.1,0.3,0.3,0.4,0.5
		c0.1,0.2,0.1,0.4,0.1,0.7c0,0.2,0,0.4-0.1,0.6c-0.1,0.2-0.2,0.3-0.3,0.5c-0.1,0.1-0.3,0.3-0.5,0.4c-0.2,0.1-0.3,0.2-0.5,0.3
		l1.4,1.4l0.9-1.4h1.1l-1.4,2.1L-834.1,499.2L-834.1,499.2z M-827.4,498.5c0.2,0,0.5,0,0.6-0.1c0.2-0.1,0.4-0.2,0.5-0.3
		c0.1-0.1,0.2-0.3,0.3-0.5c0.1-0.2,0.1-0.4,0.1-0.7c0-0.2,0-0.4-0.1-0.6c-0.1-0.2-0.2-0.4-0.3-0.5c-0.1-0.1-0.3-0.3-0.5-0.3
		c-0.2-0.1-0.4-0.1-0.6-0.1c-0.2,0-0.5,0-0.6,0.1c-0.2,0.1-0.4,0.2-0.5,0.3c-0.1,0.1-0.2,0.3-0.3,0.5c-0.1,0.2-0.1,0.4-0.1,0.6
		c0,0.2,0,0.4,0.1,0.6c0.1,0.2,0.2,0.4,0.3,0.5c0.1,0.1,0.3,0.3,0.5,0.3C-827.8,498.5-827.6,498.5-827.4,498.5L-827.4,498.5z
		 M-824.9,499.2h-0.9v-0.7h0c-0.2,0.2-0.4,0.4-0.7,0.6c-0.3,0.1-0.6,0.2-0.9,0.2c-0.4,0-0.7-0.1-1-0.2c-0.3-0.1-0.5-0.3-0.8-0.5
		c-0.2-0.2-0.4-0.5-0.5-0.8c-0.1-0.3-0.2-0.6-0.2-1c0-0.3,0.1-0.7,0.2-1c0.1-0.3,0.3-0.6,0.5-0.8c0.2-0.2,0.5-0.4,0.8-0.5
		c0.3-0.1,0.6-0.2,1-0.2c0.3,0,0.7,0.1,1,0.2c0.3,0.1,0.5,0.3,0.7,0.6h0v-3.4h0.9L-824.9,499.2L-824.9,499.2z M-822.8,492.9
		c0-0.2,0.1-0.3,0.2-0.5c0.1-0.1,0.3-0.2,0.5-0.2s0.3,0.1,0.5,0.2c0.1,0.1,0.2,0.3,0.2,0.5c0,0.2-0.1,0.3-0.2,0.5
		c-0.1,0.1-0.3,0.2-0.5,0.2c-0.2,0-0.3-0.1-0.5-0.2C-822.8,493.3-822.8,493.1-822.8,492.9L-822.8,492.9z M-822.6,494.6h0.9v4.6h-0.9
		L-822.6,494.6L-822.6,494.6z M-816.9,495.8c-0.1-0.1-0.2-0.2-0.4-0.3c-0.2-0.1-0.3-0.1-0.6-0.1c-0.2,0-0.4,0-0.6,0.1
		c-0.2,0.1-0.2,0.2-0.2,0.4c0,0.1,0,0.2,0.1,0.3c0.1,0.1,0.2,0.2,0.3,0.2c0.1,0.1,0.3,0.1,0.4,0.1l0.4,0.1c0.2,0,0.4,0.1,0.5,0.2
		c0.2,0.1,0.3,0.1,0.4,0.3c0.1,0.1,0.2,0.2,0.3,0.4c0.1,0.2,0.1,0.3,0.1,0.6c0,0.3-0.1,0.5-0.2,0.7c-0.1,0.2-0.3,0.3-0.4,0.5
		c-0.2,0.1-0.4,0.2-0.6,0.3c-0.2,0.1-0.5,0.1-0.7,0.1c-0.4,0-0.7-0.1-1-0.2c-0.3-0.1-0.6-0.3-0.8-0.6l0.7-0.5
		c0.1,0.1,0.3,0.3,0.5,0.4c0.2,0.1,0.4,0.2,0.7,0.2c0.1,0,0.2,0,0.3,0c0.1,0,0.2-0.1,0.3-0.1c0.1-0.1,0.2-0.1,0.2-0.2
		c0.1-0.1,0.1-0.2,0.1-0.3c0-0.1,0-0.2-0.1-0.3c-0.1-0.1-0.2-0.2-0.3-0.2c-0.1-0.1-0.2-0.1-0.4-0.1c-0.1,0-0.2-0.1-0.3-0.1
		c-0.2,0-0.4-0.1-0.5-0.2c-0.2-0.1-0.3-0.1-0.5-0.2c-0.1-0.1-0.2-0.2-0.3-0.4c-0.1-0.1-0.1-0.3-0.1-0.6c0-0.2,0-0.5,0.2-0.6
		c0.1-0.2,0.2-0.3,0.4-0.4c0.2-0.1,0.4-0.2,0.6-0.3c0.2-0.1,0.4-0.1,0.6-0.1c0.3,0,0.6,0.1,0.9,0.2c0.3,0.1,0.5,0.3,0.7,0.6
		L-816.9,495.8L-816.9,495.8z M-810.7,495.8c-0.2-0.2-0.3-0.3-0.5-0.4c-0.2-0.1-0.4-0.1-0.7-0.1c-0.2,0-0.5,0-0.6,0.1
		c-0.2,0.1-0.3,0.2-0.5,0.4c-0.1,0.2-0.2,0.3-0.3,0.5c-0.1,0.2-0.1,0.4-0.1,0.6c0,0.2,0,0.4,0.1,0.6c0.1,0.2,0.2,0.4,0.3,0.5
		c0.1,0.1,0.3,0.3,0.5,0.3c0.2,0.1,0.4,0.1,0.6,0.1c0.3,0,0.5,0,0.6-0.1c0.2-0.1,0.3-0.2,0.5-0.4l0.6,0.6c-0.2,0.3-0.5,0.4-0.8,0.5
		c-0.3,0.1-0.6,0.2-1,0.2c-0.4,0-0.7-0.1-1-0.2c-0.3-0.1-0.6-0.3-0.8-0.5c-0.2-0.2-0.4-0.5-0.5-0.8c-0.1-0.3-0.2-0.6-0.2-1
		c0-0.4,0.1-0.7,0.2-1c0.1-0.3,0.3-0.6,0.5-0.8c0.2-0.2,0.5-0.4,0.8-0.5c0.3-0.1,0.6-0.2,1-0.2c0.3,0,0.7,0.1,1,0.2
		c0.3,0.1,0.6,0.3,0.8,0.6L-810.7,495.8L-810.7,495.8z M-808.6,496.9c0-0.3,0.1-0.7,0.2-1c0.1-0.3,0.3-0.5,0.5-0.8
		c0.2-0.2,0.5-0.4,0.8-0.5c0.3-0.1,0.6-0.2,1-0.2c0.4,0,0.7,0.1,1,0.2c0.3,0.1,0.6,0.3,0.8,0.5c0.2,0.2,0.4,0.5,0.5,0.8
		c0.1,0.3,0.2,0.6,0.2,1c0,0.3-0.1,0.7-0.2,1c-0.1,0.3-0.3,0.6-0.5,0.8c-0.2,0.2-0.5,0.4-0.8,0.5c-0.3,0.1-0.6,0.2-1,0.2
		s-0.7-0.1-1-0.2c-0.3-0.1-0.6-0.3-0.8-0.5c-0.2-0.2-0.4-0.5-0.5-0.8C-808.6,497.6-808.6,497.3-808.6,496.9L-808.6,496.9z
		 M-807.7,496.9c0,0.2,0,0.5,0.1,0.6c0.1,0.2,0.2,0.4,0.3,0.5c0.1,0.1,0.3,0.3,0.5,0.3c0.2,0.1,0.4,0.1,0.6,0.1c0.2,0,0.5,0,0.6-0.1
		c0.2-0.1,0.4-0.2,0.5-0.3c0.1-0.1,0.2-0.3,0.3-0.5c0.1-0.2,0.1-0.4,0.1-0.6c0-0.2,0-0.4-0.1-0.6c-0.1-0.2-0.2-0.4-0.3-0.5
		c-0.1-0.1-0.3-0.3-0.5-0.3c-0.2-0.1-0.4-0.1-0.6-0.1c-0.2,0-0.5,0-0.6,0.1c-0.2,0.1-0.4,0.2-0.5,0.3c-0.1,0.1-0.2,0.3-0.3,0.5
		C-807.6,496.5-807.7,496.7-807.7,496.9L-807.7,496.9z M-802.2,494.6h1l1.4,3.6l1.3-3.6h1l-1.8,4.6h-1L-802.2,494.6L-802.2,494.6z
		 M-792.2,496.5c0-0.2,0-0.4-0.1-0.5c-0.1-0.2-0.1-0.3-0.3-0.4c-0.1-0.1-0.3-0.2-0.4-0.3c-0.2-0.1-0.4-0.1-0.6-0.1
		c-0.2,0-0.4,0-0.6,0.1c-0.2,0.1-0.3,0.2-0.5,0.3c-0.1,0.1-0.2,0.3-0.3,0.4s-0.1,0.3-0.1,0.5L-792.2,496.5L-792.2,496.5z
		 M-795.1,497.2c0,0.2,0,0.4,0.1,0.5c0.1,0.2,0.2,0.3,0.4,0.4c0.1,0.1,0.3,0.2,0.5,0.3c0.2,0.1,0.4,0.1,0.6,0.1
		c0.3,0,0.5-0.1,0.7-0.2c0.2-0.1,0.4-0.3,0.6-0.5l0.7,0.5c-0.5,0.6-1.2,0.9-2.1,0.9c-0.4,0-0.7-0.1-1-0.2c-0.3-0.1-0.6-0.3-0.8-0.5
		c-0.2-0.2-0.4-0.5-0.5-0.8c-0.1-0.3-0.2-0.6-0.2-1c0-0.3,0.1-0.7,0.2-1c0.1-0.3,0.3-0.6,0.5-0.8c0.2-0.2,0.5-0.4,0.8-0.5
		s0.6-0.2,1-0.2c0.4,0,0.8,0.1,1.1,0.2c0.3,0.1,0.5,0.3,0.7,0.6c0.2,0.2,0.3,0.5,0.4,0.8c0.1,0.3,0.1,0.6,0.1,0.9v0.3H-795.1
		L-795.1,497.2z M-789.3,494.6h0.9v0.7h0c0.1-0.1,0.1-0.2,0.2-0.3c0.1-0.1,0.2-0.2,0.3-0.3c0.1-0.1,0.3-0.1,0.4-0.2
		c0.1,0,0.3-0.1,0.4-0.1c0.1,0,0.3,0,0.4,0.1l0,0.9c-0.1,0-0.1,0-0.2-0.1c-0.1,0-0.1,0-0.2,0c-0.4,0-0.8,0.1-1,0.4
		c-0.2,0.2-0.3,0.6-0.3,1.1v2.3h-0.9L-789.3,494.6L-789.3,494.6z M-864.3,459.9c-1,0.8-2.3,1.3-3.7,1.3c-3.1,0-5.7-2.6-5.6-5.7
		c0-0.8,0.2-1.8,0.5-2.6c2.7-7.4,7.8-17.3,14.7-24.4c5.5-5.7,12.1-9.6,19.8-9.5c9.1,0.1,16.2,5.3,22.1,12.3c2-0.3,3.8-0.4,5.3-0.3
		c4.9,0.1,9,1.4,11.9,3.8c1.5,1.2,2.6,2.6,3.4,4.3c0.8,1.6,1.2,3.5,1.1,5.5c-0.1,3.9-1.9,8.5-6,13.4c-1.5,1.9-3.3,3.3-5.3,3.3
		c-3.4-0.1-4.5-2.5-5.9-5c-3-5.2-6.2-10.9-9.9-15.8c-4.8,1.1-10.3,2.9-15.8,5.1c-9.9,3.9-19.8,9-26.2,14.1
		C-864,459.7-864.2,459.8-864.3,459.9L-864.3,459.9z M-810.9,439c2.3,3.4,4.4,7,6.3,10.5c1.1-1.9,1.7-3.7,1.7-5.1
		c0-0.7-0.1-1.4-0.4-1.9c-0.3-0.6-0.7-1.1-1.2-1.5C-805.8,439.8-808.1,439.1-810.9,439L-810.9,439z M-827.7,433.7c-3.4-3-7-5-11-5
		c-4.5-0.1-8.8,2.7-12.5,6.6c-3.3,3.5-6.2,7.8-8.5,12c5.8-3.4,12.5-6.6,19.2-9.2C-836.3,436.3-831.9,434.8-827.7,433.7L-827.7,433.7
		z M-806.3,467.9h3.2c0.4,0,0.7,0.3,0.7,0.7v17.3c0,0.4-0.3,0.7-0.7,0.7h-3.2c-0.4,0-0.7-0.3-0.7-0.7v-17.3
		C-807,468.2-806.7,467.9-806.3,467.9z M-827.4,483.9c0.1,1.1,0.9,2.9,3.5,2.7h9.5c0.6,0,0.5-0.5,0.4-0.7c-0.5-1.9-1-2.9-2.3-2.9
		h-5.3c-0.6,0-1.1,0-1.2-0.7c-0.2-1.1-0.3-2.2-0.3-3.5c0-0.1,0.2-0.2,0.3-0.2h6.5c0.2,0,0.4-0.2,0.4-0.4v-2.7c0-0.2-0.2-0.4-0.4-0.4
		h-6.6c-0.3,0-0.2-0.3-0.2-0.4c0.1-1.1,0.2-2.1,0.3-2.8c0.1-0.3,0.5-0.6,0.8-0.6h5.4c1.7,0,2-1.9,2.3-3c0.1-0.4-0.1-0.5-0.3-0.5
		h-9.3c-1.7,0-3,0.9-3.3,2.7C-827.9,473.8-828,480.1-827.4,483.9L-827.4,483.9z M-852.1,468.7v17c0,0.4,0.2,0.9,0.8,0.9h9.1
		c4.7,0,7.6-3.9,7.6-9.4c0-5.4-2.9-9.3-7.3-9.3h-9.4C-851.9,467.9-852.1,468.4-852.1,468.7L-852.1,468.7z M-847,471.9h5.1
		c1.4,0,2.7,2.3,2.7,5.6c0,3.2-1.8,5.2-3.1,5.2l-4.6,0c-0.3,0-0.6-0.2-0.6-0.5v-9.9C-847.5,472.1-847.2,471.9-847,471.9L-847,471.9z
		 M-871.9,481c0,4.4,1.9,5.6,4.5,5.6h7.6c0.4,0,0.6-0.3,0.6-0.5v-0.6c0-1.5-1.2-2.7-2.6-2.7h-4.2c-1.3,0-1.4-1.1-1.4-1.7v-9.8
		c0-1.8-1-3.4-2.9-3.4h-1.2c-0.2,0-0.5-0.1-0.5,0.2C-871.9,468.1-871.9,481-871.9,481z M-883.2,470.5c2.1,4.5,4,10.4,5.5,15.6
		c0.1,0.2-0.1,0.5-0.5,0.5h-2c-1.2,0-2.5-1-2.9-2.2l-0.3-1c-0.1-0.5-0.3-0.5-0.5-0.5h-7.9c-0.2,0-0.4,0-0.5,0.4l-0.3,1.1
		c-0.3,1.2-1.7,2.2-2.9,2.2h-2c-0.4,0-0.5-0.3-0.5-0.5c1.5-5.1,3.4-11.1,5.5-15.6C-890.8,466.9-884.9,466.9-883.2,470.5
		L-883.2,470.5z M-884.9,479.2c0.3,0,0.2-0.3,0.2-0.5c-0.7-2.3-1.4-4.5-2.1-6c-0.4-0.8-1.7-0.8-2.1,0c-0.7,1.5-1.4,3.7-2.1,6.1
		c0,0.1-0.1,0.4,0.3,0.4H-884.9L-884.9,479.2z M-781.5,470.5c2.1,4.5,4,10.4,5.5,15.6c0.1,0.2-0.1,0.5-0.5,0.5h-2
		c-1.2,0-2.5-1-2.9-2.2l-0.3-1c-0.1-0.5-0.3-0.5-0.5-0.5h-7.9c-0.2,0-0.4,0-0.5,0.4l-0.3,1.1c-0.3,1.2-1.7,2.2-2.9,2.2h-2
		c-0.4,0-0.5-0.3-0.5-0.5c1.5-5.1,3.4-11.1,5.5-15.6C-789.1,466.9-783.2,466.9-781.5,470.5L-781.5,470.5z M-783.2,479.2
		c0.3,0,0.2-0.3,0.2-0.5c-0.7-2.3-1.4-4.5-2.1-6c-0.4-0.8-1.7-0.8-2.1,0c-0.7,1.5-1.4,3.7-2.1,6.1c0,0.1-0.1,0.4,0.3,0.4H-783.2z"/>
</g>
</svg>
